<svg height="512pt" viewBox="0 0 512.03732 512" width="512pt" xmlns="http://www.w3.org/2000/svg"><path d="m388.433594 66.382812v171.980469h-264.828125v-171.980469c14.230469 1.183594 28.46875 2.367188 42.59375 3.3125 29.90625 2.125 59.910156 3.082032 89.820312 3.082032 29.90625 0 59.910157-.957032 89.820313-3.082032 14.125-.945312 28.363281-2.128906 42.59375-3.3125zm0 0" fill="#7f6e5d"/><g fill="#7f5b53"><path d="m185.398438 238.363281c-4.875 0-8.828126-3.953125-8.828126-8.828125v-35.308594c0-4.875 3.953126-8.828124 8.828126-8.828124s8.828124 3.953124 8.828124 8.828124v35.308594c0 4.875-3.953124 8.828125-8.828124 8.828125zm0 0"/><path d="m220.707031 238.363281c-4.875 0-8.828125-3.953125-8.828125-8.828125v-35.308594c0-4.875 3.953125-8.828124 8.828125-8.828124s8.828125 3.953124 8.828125 8.828124v35.308594c0 4.875-3.953125 8.828125-8.828125 8.828125zm0 0"/><path d="m256.019531 238.363281c-4.875 0-8.828125-3.953125-8.828125-8.828125v-35.308594c0-4.875 3.953125-8.828124 8.828125-8.828124s8.828125 3.953124 8.828125 8.828124v35.308594c0 4.875-3.953125 8.828125-8.828125 8.828125zm0 0"/><path d="m291.328125 238.363281c-4.875 0-8.828125-3.953125-8.828125-8.828125v-35.308594c0-4.875 3.953125-8.828124 8.828125-8.828124s8.828125 3.953124 8.828125 8.828124v35.308594c0 4.875-3.953125 8.828125-8.828125 8.828125zm0 0"/><path d="m326.640625 238.363281c-4.875 0-8.828125-3.953125-8.828125-8.828125v-35.308594c0-4.875 3.953125-8.828124 8.828125-8.828124s8.828125 3.953124 8.828125 8.828124v35.308594c0 4.875-3.953125 8.828125-8.828125 8.828125zm0 0"/></g><path d="m361.949219 203.054688h-211.863281c-4.875 0-8.824219-3.953126-8.824219-8.828126s3.949219-8.828124 8.824219-8.828124h211.863281c4.875 0 8.828125 3.953124 8.828125 8.828124s-3.953125 8.828126-8.828125 8.828126zm0 0" fill="#af8066"/><path d="m397.261719 112.570312v129.660157h-35.3125v-127.179688c10.242187-.679687 20.570312-1.351562 30.808593-2.144531zm0 0" fill="#802f34"/><path d="m150.085938 115.050781v127.179688h-35.308594v-129.660157l4.503906.335938c10.238281.792969 20.566406 1.464844 30.804688 2.144531zm0 0" fill="#802f34"/><path d="m35.328125 285.875h441.378906v164.351562h-441.378906zm0 0" fill="#7f5b53"/><path d="m158.914062 302.363281h35.3125v146.386719h-35.3125zm0 0" fill="#802f34"/><path d="m17.675781 302.363281h35.308594v146.386719h-35.308594zm0 0" fill="#802f34"/><path d="m317.8125 302.363281h35.308594v146.386719h-35.308594zm0 0" fill="#802f34"/><path d="m459.054688 302.363281h35.308593v146.386719h-35.308593zm0 0" fill="#802f34"/><path d="m8.847656 441.398438h494.34375c4.875 0 8.828125 3.953124 8.828125 8.828124v52.964844c0 4.875-3.953125 8.828125-8.828125 8.828125h-494.34375c-4.875 0-8.8281248-3.953125-8.8281248-8.828125v-52.964844c0-4.875 3.9531248-8.828124 8.8281248-8.828124zm0 0" fill="#547580"/><path d="m507.605469 308.984375h-503.171875c-2.0625.007813-3.855469-1.410156-4.320313-3.417969-.464843-2.007812.523438-4.070312 2.378907-4.96875l32.484374-17.035156c23.664063-12.394531 45.304688-28.320312 64.175782-47.230469l1.589844-1.585937c3.320312-3.335938 7.828124-5.207032 12.535156-5.210938h285.484375c4.703125.003906 9.214843 1.875 12.535156 5.210938l1.589844 1.585937c18.871093 18.910157 40.511719 34.835938 64.175781 47.230469l32.484375 17.035156c1.855469.898438 2.839844 2.960938 2.375 4.96875-.464844 2.007813-2.257813 3.425782-4.316406 3.417969zm0 0" fill="#35495e"/><path d="m176.570312 441.398438h158.898438v47.863281h-158.898438zm0 0" fill="#95a5a5"/><path d="m97.121094 353.121094h17.65625c9.75 0 17.65625 7.90625 17.65625 17.65625v70.621094h-52.964844v-70.621094c0-9.75 7.902344-17.65625 17.652344-17.65625zm0 0" fill="#cbb292"/><path d="m247.191406 353.121094h17.65625c9.75 0 17.652344 7.90625 17.652344 17.65625v70.621094h-52.964844v-70.621094c0-9.75 7.90625-17.65625 17.65625-17.65625zm0 0" fill="#cbb292"/><path d="m397.261719 353.121094h17.652343c9.75 0 17.65625 7.90625 17.65625 17.65625v70.621094h-52.964843v-70.621094c0-9.75 7.902343-17.65625 17.65625-17.65625zm0 0" fill="#cbb292"/><path d="m167.742188 476.707031h176.550781c4.875 0 8.828125 3.953125 8.828125 8.828125v26.484375h-194.207032v-26.484375c0-4.875 3.953126-8.828125 8.828126-8.828125zm0 0" fill="#bdc3c7"/><path d="m449.695312 116.542969c-.003906 2.597656-1.859374 4.824219-4.414062 5.296875-.347656.074218-.703125.101562-1.058594.085937-.617187.089844-1.148437.089844-1.765625.179688-6.179687.527343-12.359375.96875-18.539062 1.410156-8.914063.617187-17.832031 1.238281-26.65625 1.765625l-4.503907.265625c-10.238281.707031-20.566406 1.234375-30.808593 1.765625-11.386719.441406-22.773438.882812-34.074219 1.234375-23.921875.796875-47.933594 1.238281-71.855469 1.238281s-47.933593-.441406-71.859375-1.238281c-11.296875-.351563-22.683594-.792969-34.074218-1.234375-10.238282-.53125-20.566407-1.058594-30.804688-1.765625 25.554688-27.070313 44.472656-59.707031 55.257812-95.335937h211.15625c.972657 2.46875 2.03125 5.03125 3.089844 7.414062.53125 1.410156 1.148438 2.734375 1.765625 4.058594 1.589844 3.265625 3.179688 6.535156 4.855469 9.710937 1.5 2.738281 3 5.386719 4.589844 7.945313 1.324218 2.207031 2.648437 4.324218 4.0625 6.445312.617187 1.058594 1.410156 2.207032 2.117187 3.265625.265625.402344.5625.785157.882813 1.148438 7.925781 11.40625 17.136718 21.863281 27.453125 31.160156 4.066406 3.796875 8.339843 7.363281 12.800781 10.679687.285156.179688.550781.386719.792969.621094 1.003906 1.042969 1.574219 2.433594 1.589843 3.882813zm0 0" fill="#2c3e50"/><path d="m392.757812 125.582031c-10.238281.636719-20.566406 1.175781-30.808593 1.765625-11.386719.449219-22.773438.882813-34.074219 1.261719-17.300781-46.160156-29.75-78.292969-34.515625-98.382813h44.136719c10.796875 35.632813 29.714844 68.273438 55.261718 95.355469zm0 0" fill="#35495e"/><path d="m256.019531 30.183594v99.601562c-23.921875 0-47.933593-.363281-71.859375-1.183594 17.304688-46.160156 29.75-78.292968 34.519532-98.382812zm0 0" fill="#35495e"/><path d="m174.539062 30.210938c-10.785156 35.628906-29.703124 68.265624-55.257812 95.335937l-4.503906-.265625c-15.625-.96875-31.339844-2.03125-46.960938-3.355469-.355468.015625-.714844-.011719-1.0625-.085937-2.554687-.472656-4.410156-2.699219-4.414062-5.296875.019531-1.449219.585937-2.839844 1.589844-3.882813.242187-.234375.507812-.441406.796874-.621094 27.734376-21.027343 49.070313-49.363281 61.613282-81.828124zm0 0" fill="#35495e"/><path d="m379.605469 35.328125h-247.171875c9.710937 0 .730468-9.417969.730468-19.128906 0-3.175781 16.039063-4.792969 14.539063-7.351563h216.628906c-1.5 2.558594 19.6875 5.648438 19.6875 8.828125 0 9.707031-14.125 17.652344-4.414062 17.652344zm0 0" fill="#802f34"/><path d="m150.085938 17.675781c-.027344 9.738281-7.914063 17.625-17.652344 17.652344-1.925782-.003906-3.835938-.332031-5.652344-.96875-8.492188-2.902344-13.445312-11.730469-11.496094-20.496094 1.953125-8.761719 10.183594-14.652343 19.109375-13.675781 8.921875.976562 15.683594 8.507812 15.691407 17.488281zm0 0" fill="#bdc3c7"/><path d="m397.261719 17.675781c-.019531 7.554688-4.847657 14.265625-12.007813 16.683594-1.816406.636719-3.726562.964844-5.648437.96875-9.75 0-17.65625-7.902344-17.65625-17.652344 0-9.753906 7.90625-17.6562498 17.65625-17.6562498s17.65625 7.9023438 17.65625 17.6562498zm0 0" fill="#bdc3c7"/></svg>