<?xml version="1.0" encoding="iso-8859-1"?>
<!-- Generator: Adobe Illustrator 19.0.0, SVG Export Plug-In . SVG Version: 6.00 Build 0)  -->
<svg version="1.1" id="Capa_1" xmlns="http://www.w3.org/2000/svg" xmlns:xlink="http://www.w3.org/1999/xlink" x="0px" y="0px"
	 viewBox="0 0 511.999 511.999" style="enable-background:new 0 0 511.999 511.999;" xml:space="preserve">
<path style="fill:#FFB69E;" d="M302.904,127.963L302.904,127.963c-0.001,0-0.002,0-0.002,0c-13.006,0-75.43,0-86.544,0
	l-41.273-4.826l22.22-26.693c6.659-8.001,5.572-19.885-2.429-26.545c-8.003-6.66-19.885-5.572-26.546,2.429l-44.474,53.432
	c-9.564,11.49-2.541,29.044,12.298,30.779l66.915,7.824v144.229h99.836v-46.329l33.024-13.138
	c7.175-2.855,11.883-9.794,11.883-17.517v-59.262C347.688,147.873,327.543,127.965,302.904,127.963z M310.108,218.82l-7.204,2.866
	v-56.023c3.887,0.001,7.186,3.149,7.204,6.779V218.82z"/>
<path style="fill:#78BEFF;" d="M328.959,231.609h0.01H328.959z"/>
<circle style="fill:#FFB69E;" cx="253.039" cy="71.869" r="39.063"/>
<g>
	<path style="fill:#414B82;" d="M257.668,301.313V489.38c0,12.491,10.126,22.618,22.618,22.618
		c12.492,0,22.618-10.127,22.618-22.618V301.313H257.668z"/>
	<path style="fill:#414B82;" d="M203.068,301.313V489.38c0,12.491,10.126,22.618,22.618,22.618
		c12.492,0,22.618-10.127,22.618-22.618V301.313H203.068z"/>
</g>
<path style="fill:#78BEFF;" d="M302.904,127.963L302.904,127.963h-32.551c0.424,9.465-8.359,17.53-17.527,17.53
	c-9.826,0-17.101-8.033-17.527-17.53h-18.941l-41.273-4.826l-8.635,36.804l36.619,4.392v144.26h99.836v-142.93
	c3.887,0.001,7.186,3.149,7.204,6.779v28.993h37.703v-29.087C347.688,147.873,327.543,127.965,302.904,127.963z"/>
<path style="fill:#C8E6EB;" d="M381.374,101.13h-56.699c-6.155,0-11.144-4.989-11.144-11.144s4.989-11.144,11.144-11.144h56.699
	c6.155,0,11.144,4.989,11.144,11.144S387.528,101.13,381.374,101.13z"/>
<path style="fill:#B4D7DC;" d="M316.795,59.114c-4.352-4.352-4.352-11.407,0-15.759l40.093-40.092
	c4.353-4.352,11.408-4.352,15.759,0c4.352,4.352,4.352,11.407,0,15.759l-40.093,40.092
	C328.203,63.466,321.148,63.466,316.795,59.114z"/>
<path style="fill:#C8E6EB;" d="M265.455,294.361c1.537,7.711-4.362,14.934-12.25,14.934h-58.472c-5.957,0-11.086-4.207-12.25-10.05
	l-18.42-92.393c-1.537-7.711,4.362-14.934,12.25-14.934h58.472c5.957,0,11.086,4.207,12.25,10.05L265.455,294.361z"/>
<path style="fill:#FFB69E;" d="M302.904,221.686l-50.035,19.905c-9.674,3.849-14.397,14.811-10.549,24.485
	c3.861,9.703,14.839,14.386,24.486,10.548l36.099-14.36v-40.578H302.904z"/>
<g>
</g>
<g>
</g>
<g>
</g>
<g>
</g>
<g>
</g>
<g>
</g>
<g>
</g>
<g>
</g>
<g>
</g>
<g>
</g>
<g>
</g>
<g>
</g>
<g>
</g>
<g>
</g>
<g>
</g>
</svg>
